HIERARCHY
ROOT hip
{
  OFFSET 44.7096 75.8532 24.4764
  CHANNELS 6 Xposition Yposition Zposition Zrotation Xrotation Yrotation
  JOINT abdomen
  {
    OFFSET 0 20.6881 -0.73152
    CHANNELS 3 Zrotation Xrotation Yrotation
    JOINT chest
    {
      OFFSET 0 11.7043 -0.48768
      CHANNELS 3 Zrotation Xrotation Yrotation
      JOINT neck
      {
        OFFSET 0 22.1894 -2.19456
        CHANNELS 3 Zrotation Xrotation Yrotation
        JOINT head
        {
          OFFSET -0.24384 7.07133 1.2192
          CHANNELS 3 Zrotation Xrotation Yrotation
          JOINT leftEye
          {
            OFFSET 4.14528 8.04674 8.04672
            CHANNELS 3 Zrotation Xrotation Yrotation
            End Site
            {
              OFFSET 1 0 0
            }
          }
          JOINT rightEye
          {
            OFFSET -3.6576 8.04674 8.04672
            CHANNELS 3 Zrotation Xrotation Yrotation
            End Site
            {
              OFFSET 1 0 0
            }
          }
        }
      }
      JOINT rCollar
      {
        OFFSET -2.68224 19.2634 -4.8768
        CHANNELS 3 Zrotation Xrotation Yrotation
        JOINT rShldr
        {
          OFFSET -8.77824 -1.95073 1.46304
          CHANNELS 3 Zrotation Xrotation Yrotation
          JOINT rForeArm
          {
            OFFSET -28.1742 -1.7115 0.48768
            CHANNELS 3 Zrotation Xrotation Yrotation
            JOINT rHand
            {
              OFFSET -22.5879 0.773209 7.07136
              CHANNELS 3 Zrotation Xrotation Yrotation
              JOINT rThumb1
              {
                OFFSET -1.2192 -0.487915 3.41376
                CHANNELS 3 Zrotation Xrotation Yrotation
                JOINT rThumb2
                {
                  OFFSET -3.37035 -0.52449 3.41376
                  CHANNELS 3 Zrotation Xrotation Yrotation
                  End Site
                  {
                    OFFSET -1.78271 -1.18214 1.43049
                  }
                }
              }
              JOINT rIndex1
              {
                OFFSET -7.75947 0.938293 5.60832
                CHANNELS 3 Zrotation Xrotation Yrotation
                JOINT rIndex2
                {
                  OFFSET -2.54057 -0.884171 1.56538
                  CHANNELS 3 Zrotation Xrotation Yrotation
                  End Site
                  {
                    OFFSET -1.62519 -0.234802 1.16502
                  }
                }
              }
              JOINT rMid1
              {
                OFFSET -8.24714 1.18213 3.41376
                CHANNELS 3 Zrotation Xrotation Yrotation
                JOINT rMid2
                {
                  OFFSET -3.10165 -0.590103 1.0647
                  CHANNELS 3 Zrotation Xrotation Yrotation
                  End Site
                  {
                    OFFSET -2.48547 -0.328903 0.83742
                  }
                }
              }
              JOINT rRing1
              {
                OFFSET -8.82822 0.546677 1.51678
                CHANNELS 3 Zrotation Xrotation Yrotation
                JOINT rRing2
                {
                  OFFSET -2.60934 -0.819778 -0.0198488
                  CHANNELS 3 Zrotation Xrotation Yrotation
                  End Site
                  {
                    OFFSET -2.33842 -0.294052 0.168128
                  }
                }
              }
              JOINT rPinky1
              {
                OFFSET -8.27202 -0.0477905 -0.4584
                CHANNELS 3 Zrotation Xrotation Yrotation
                JOINT rPinky2
                {
                  OFFSET -1.82734 -0.647385 -0.700984
                  CHANNELS 3 Zrotation Xrotation Yrotation
                  End Site
                  {
                    OFFSET -1.69225 -0.51767 -0.607171
                  }
                }
              }
            }
          }
        }
      }
      JOINT lCollar
      {
        OFFSET 2.68224 19.2634 -4.8768
        CHANNELS 3 Zrotation Xrotation Yrotation
        JOINT lShldr
        {
          OFFSET 8.77824 -1.95073 1.46304
          CHANNELS 3 Zrotation Xrotation Yrotation
          JOINT lForeArm
          {
            OFFSET 28.1742 -1.7115 0.48768
            CHANNELS 3 Zrotation Xrotation Yrotation
            JOINT lHand
            {
              OFFSET 22.5879 0.773209 7.07136
              CHANNELS 3 Zrotation Xrotation Yrotation
              JOINT lThumb1
              {
                OFFSET 1.2192 -0.487915 3.41376
                CHANNELS 3 Zrotation Xrotation Yrotation
                JOINT lThumb2
                {
                  OFFSET 3.37035 -0.52449 3.41376
                  CHANNELS 3 Zrotation Xrotation Yrotation
                  End Site
                  {
                    OFFSET 1.78271 -1.18214 1.43049
                  }
                }
              }
              JOINT lIndex1
              {
                OFFSET 7.75947 0.938293 5.60832
                CHANNELS 3 Zrotation Xrotation Yrotation
                JOINT lIndex2
                {
                  OFFSET 2.54057 -0.884171 1.56538
                  CHANNELS 3 Zrotation Xrotation Yrotation
                  End Site
                  {
                    OFFSET 1.62519 -0.234802 1.16502
                  }
                }
              }
              JOINT lMid1
              {
                OFFSET 8.24714 1.18213 3.41376
                CHANNELS 3 Zrotation Xrotation Yrotation
                JOINT lMid2
                {
                  OFFSET 3.10165 -0.590103 1.0647
                  CHANNELS 3 Zrotation Xrotation Yrotation
                  End Site
                  {
                    OFFSET 2.48547 -0.328903 0.83742
                  }
                }
              }
              JOINT lRing1
              {
                OFFSET 8.82822 0.546677 1.51678
                CHANNELS 3 Zrotation Xrotation Yrotation
                JOINT lRing2
                {
                  OFFSET 2.60934 -0.819778 -0.0198488
                  CHANNELS 3 Zrotation Xrotation Yrotation
                  End Site
                  {
                    OFFSET 2.33842 -0.294052 0.168128
                  }
                }
              }
              JOINT lPinky1
              {
                OFFSET 8.27202 -0.0477905 -0.4584
                CHANNELS 3 Zrotation Xrotation Yrotation
                JOINT lPinky2
                {
                  OFFSET 1.82734 -0.647385 -0.700984
                  CHANNELS 3 Zrotation Xrotation Yrotation
                  End Site
                  {
                    OFFSET 1.69225 -0.51767 -0.607171
                  }
                }
              }
            }
          }
        }
      }
    }
  }
  JOINT rButtock
  {
    OFFSET -8.77824 4.35084 1.2192
    CHANNELS 3 Zrotation Xrotation Yrotation
    JOINT rThigh
    {
      OFFSET 0 -1.70687 -2.19456
      CHANNELS 3 Zrotation Xrotation Yrotation
      JOINT rShin
      {
        OFFSET 0 -36.8199 0.73152
        CHANNELS 3 Zrotation Xrotation Yrotation
        JOINT rFoot
        {
          OFFSET 0.73152 -45.1104 -5.12064
          CHANNELS 3 Zrotation Xrotation Yrotation
          End Site
          {
            OFFSET -1.1221 -3.69964 12.103
          }
        }
      }
    }
  }
  JOINT lButtock
  {
    OFFSET 8.77824 4.35084 1.2192
    CHANNELS 3 Zrotation Xrotation Yrotation
    JOINT lThigh
    {
      OFFSET 0 -1.70687 -2.19456
      CHANNELS 3 Zrotation Xrotation Yrotation
      JOINT lShin
      {
        OFFSET 0 -36.8199 0.73152
        CHANNELS 3 Zrotation Xrotation Yrotation
        JOINT lFoot
        {
          OFFSET -0.73152 -45.1104 -5.12064
          CHANNELS 3 Zrotation Xrotation Yrotation
          End Site
          {
            OFFSET 1.1221 -3.69964 12.103
          }
        }
      }
    }
  }
}
MOTION
Frames:	5
Frame Time:	0.00833333
47.6123 46.9608 58.5672 -2.0695 0.0089654 0.0395077 2.72245 0.000518534 0.0736162 0.750796 0.0131638 0.129922 4.42438e-014 -7.95139e-016 4.96962e-016 1.32689e-013 3.18055e-015 1.49089e-015 -0 0 0 -0 0 0 2.24124e-014 1.94126e-018 4.96962e-016 4.68849e-013 -2.42269e-016 7.7526e-015 8.07617e-012 -2.40311e-012 3.81667e-014 9.21371e-011 2.41772e-012 1.16726e-012 2.17394e-010 3.59452e-014 2.59533e-012 3.75426e-010 6.36111e-014 4.46788e-012 2.17397e-010 3.73715e-014 2.58261e-012 7.73091 5.47488 0.417314 2.17394e-010 3.55825e-014 2.59533e-012 2.90554 0.965183 0.102902 2.17397e-010 3.60794e-014 2.59295e-012 10.2786 0.731801 0.0259123 2.1739e-010 3.81667e-014 2.59851e-012 2.22167 -0.733487 -0.20892 2.23156e-014 4.27076e-018 9.93923e-017 4.66507e-013 -5.46658e-016 5.96354e-015 8.02906e-012 2.41921e-012 1.27222e-014 9.21935e-011 -2.4214e-012 1.18953e-012 2.17421e-010 2.20652e-015 2.57943e-012 3.75484e-010 9.54166e-015 4.45357e-012 2.17416e-010 2.38542e-015 2.58579e-012 -7.73091 5.47488 -0.417314 2.17421e-010 2.5842e-015 2.57625e-012 -2.90554 0.965183 -0.102902 2.17411e-010 2.5842e-015 2.58022e-012 -10.2786 0.731801 -0.0259123 2.17429e-010 5.1684e-015 2.57625e-012 -2.22167 -0.733487 0.20892 -2.03217e-016 0 -3.88251e-019 2.53503 -8.65174 -0.274623 0.00738186 10.0929 0.189394 -0.519066 -1.45203 0.0288396 2.03217e-016 0 3.88251e-019 1.60993 -1.93183 -0.00956688 0.00858452 -2.07865 0.0705029 0.456692 3.99949 -0.132155 
46.4353 50.8525 57.0556 -4.4571 0.376289 34.9572 6.1369 5.79329 3.77513 5.6384 0.211995 1.11152 0.219076 3.55677 2.86527 -5.61485 -13.6433 3.19939 -0 0 0 -0 0 0 6.55199e-014 4.64568e-013 -2.78211e-013 21.5574 0.31117 2.99051 -8.92728 -5.79999 11.5398 0.0790428 -6.24963 -0.85964 3.66955e-010 -1.64523e-010 -6.21433e-010 6.45859e-010 -2.92306e-010 -1.07705e-009 3.66958e-010 -1.6452e-010 -6.21444e-010 7.73091 5.47488 0.417314 3.66954e-010 -1.64522e-010 -6.21432e-010 2.90554 0.965183 0.102902 3.66959e-010 -1.64521e-010 -6.21434e-010 10.2786 0.731801 0.0259123 3.66952e-010 -1.6452e-010 -6.21427e-010 2.22167 -0.733487 -0.20892 6.54144e-014 4.64556e-013 -2.78539e-013 -21.0306 10.9141 -6.06919 29.2747 -26.3875 -12.6734 -0.198204 9.9035 -1.31794 3.41828e-011 -3.30774e-010 1.04421e-010 6.11377e-011 -5.59766e-010 1.85103e-010 3.41799e-011 -3.30774e-010 1.04426e-010 -7.73091 5.47488 -0.417314 3.41837e-011 -3.30774e-010 1.04419e-010 -2.90554 0.965183 -0.102902 3.4174e-011 -3.30774e-010 1.04422e-010 -10.2786 0.731801 -0.0259123 3.41903e-011 -3.30772e-010 1.04418e-010 -2.22167 -0.733487 0.20892 -2.03217e-016 0 -3.88251e-019 -6.24314 -34.0233 -5.11493 13.0153 37.5326 -6.19366 6.89355 42.0857 -9.06882 2.03217e-016 0 3.88251e-019 3.75437 -14.696 -0.944133 1.55812 19.3115 0.0121727 -0.138793 3.33551 -0.043408 
45.9179 49.9298 56.872 -7.36819 0.298438 71.8325 8.91358 11.7598 7.83011 10.8253 0.445491 2.15195 0.0695676 7.27936 5.94548 -9.75169 -27.873 7.25729 -0 0 0 -0 0 0 1.13e-013 9.83602e-013 -5.90248e-013 44.2917 0.615698 6.13593 -15.8465 -11.1309 24.087 -0.0459287 -12.8186 -1.7985 5.39877e-010 -3.53086e-010 -1.3121e-009 9.57944e-010 -6.27082e-010 -2.27408e-009 5.39879e-010 -3.5308e-010 -1.31211e-009 7.73091 5.47488 0.417314 5.39874e-010 -3.53082e-010 -1.3121e-009 2.90554 0.965183 0.102902 5.39879e-010 -3.53082e-010 -1.3121e-009 10.2786 0.731801 0.0259123 5.39874e-010 -3.53082e-010 -1.31209e-009 2.22167 -0.733487 -0.20892 1.12883e-013 9.83573e-013 -5.90502e-013 -40.6633 22.0879 -13.2132 42.0416 -49.1133 -37.2437 0.117491 20.3517 -2.84834 -1.75384e-010 -7.24348e-010 2.22087e-010 -2.98401e-010 -1.22665e-009 3.93927e-010 -1.75385e-010 -7.24348e-010 2.2209e-010 -7.73091 5.47488 -0.417314 -1.75383e-010 -7.24347e-010 2.22088e-010 -2.90554 0.965183 -0.102902 -1.75392e-010 -7.24348e-010 2.22089e-010 -10.2786 0.731801 -0.0259123 -1.75378e-010 -7.24346e-010 2.22084e-010 -2.22167 -0.733487 0.20892 -2.03217e-016 0 -3.88251e-019 -24.5199 -59.9677 -17.04 41.7862 64.8165 -24.9339 87.5618 76.0244 -85.5363 2.03217e-016 0 3.88251e-019 5.52032 -28.194 -2.13361 3.25665 41.9981 -0.0819637 -0.766252 2.62633 0.0503071 
45.4406 49.127 56.7072 -9.75754 -0.347003 104.786 10.6483 17.0792 11.6403 15.3932 0.608899 3.07486 -0.421126 10.5627 8.72826 -11.0938 -40.3363 12.2758 -0 0 0 -0 0 0 1.51735e-013 1.3937e-012 -8.35626e-013 64.5753 0.923345 8.97256 -20.0629 -14.5672 35.7553 -0.352023 -18.7315 -2.70707 6.66079e-010 -4.93641e-010 -1.86949e-009 1.18672e-009 -8.77045e-010 -3.24009e-009 6.66081e-010 -4.93634e-010 -1.8695e-009 7.73091 5.47488 0.417314 6.66075e-010 -4.93636e-010 -1.86949e-009 2.90554 0.965183 0.102902 6.66081e-010 -4.93636e-010 -1.86949e-009 10.2786 0.731801 0.0259123 6.66076e-010 -4.93637e-010 -1.86948e-009 2.22167 -0.733487 -0.20892 1.51612e-013 1.39366e-012 -8.35817e-013 -55.31 31.1488 -21.0197 30.9911 -54.9338 -76.754 0.945682 29.6427 -4.48251 -3.32293e-010 -9.92328e-010 3.08103e-010 -5.67555e-010 -1.67932e-009 5.46401e-010 -3.32292e-010 -9.92328e-010 3.08105e-010 -7.73091 5.47488 -0.417314 -3.32292e-010 -9.92327e-010 3.08105e-010 -2.90554 0.965183 -0.102902 -3.32299e-010 -9.92328e-010 3.08106e-010 -10.2786 0.731801 -0.0259123 -3.32287e-010 -9.92326e-010 3.081e-010 -2.22167 -0.733487 0.20892 -2.03217e-016 0 -3.88251e-019 -83.0868 -76.8891 -68.3305 128.619 74.6335 -100.617 161.192 45.7558 -150.321 2.03217e-016 0 3.88251e-019 6.46177 -40.1755 -3.56162 4.87536 62.0915 -0.227428 -1.32359 2.00753 0.133744 
45.001 48.391 56.5285 -10.9268 -0.936724 127.956 11.399 21.061 14.4244 18.4317 0.597997 3.70377 -0.995026 12.8524 10.6412 -9.74789 -48.9264 17.3122 -0 0 0 -0 0 0 1.6861e-013 1.53145e-012 -9.1436e-013 78.7885 1.24655 11.0366 -22.1324 -15.9573 44.1486 -0.697335 -23.0202 -3.42343 6.75483e-010 -5.14178e-010 -2.09368e-009 1.20725e-009 -9.14972e-010 -3.62853e-009 6.75485e-010 -5.1417e-010 -2.09368e-009 7.73091 5.47488 0.417314 6.75478e-010 -5.14172e-010 -2.09367e-009 2.90554 0.965183 0.102902 6.75486e-010 -5.14172e-010 -2.09367e-009 10.2786 0.731801 0.0259123 6.75481e-010 -5.14173e-010 -2.09366e-009 2.22167 -0.733487 -0.20892 1.6849e-013 1.53142e-012 -9.14509e-013 -63.3641 36.4254 -27.717 25.0426 -47.9262 -99.7939 1.91899 36.1044 -5.88318 -3.57554e-010 -9.46323e-010 3.14993e-010 -6.10746e-010 -1.59645e-009 5.58e-010 -3.57552e-010 -9.46324e-010 3.14996e-010 -7.73091 5.47488 -0.417314 -3.57553e-010 -9.46322e-010 3.14996e-010 -2.90554 0.965183 -0.102902 -3.5756e-010 -9.46323e-010 3.14996e-010 -10.2786 0.731801 -0.0259123 -3.57549e-010 -9.46322e-010 3.14989e-010 -2.22167 -0.733487 0.20892 -2.03217e-016 0 -3.88251e-019 -148.575 -71.1965 -127.797 174.169 62.6012 -137.249 175.307 19.2341 -154.324 2.03217e-016 0 3.88251e-019 6.57638 -48.4132 -4.89017 6.06211 75.7024 -0.343491 -1.7101 1.61468 0.191694 
